# xmcd
#
# Track frame offsets:
#	150
#	15912
#	28140
#	39567
#	49787
#	63697
#	79722
#	94745
#	108042
#	123522
#	136255
#	152222
#	167452
#	178642
#
# Disc length: 2409 seconds
#
# Revision: 0
# Processed by: cddbd v1.4PL0 Copyright (c) Steve Scherf et al.
# Submitted via: dBpowerAMP V4.0
#
DISCID=ab09670e
DTITLE=The Siekers - Nashville Cat
DYEAR=1998
DGENRE=Bluegrass
TTITLE0=Endless Texas Highways
TTITLE1=High Performance
TTITLE2=Trail of Love
TTITLE3=Nashville Cat
TTITLE4=Brandenburg the Beautiful
TTITLE5=The Old Kafenon
TTITLE6=Old Hippies
TTITLE7=Hill Country Waltz
TTITLE8=Searching for that Lonesome Blues
TTITLE9=Dripping Springs
TTITLE10=Tribute to the Hitmen
TTITLE11=Sieker Blues
TTITLE12=Texas You've Been Always Good to Me
TTITLE13=Holy Grail
EXTD=Rolf Sieker is one of the best banjo players in the world.  Completely dedicated to Bobby Thompson style melodic playing.
EXTT0=
EXTT1=
EXTT2=
EXTT3=
EXTT4=
EXTT5=
EXTT6=
EXTT7=
EXTT8=
EXTT9=
EXTT10=
EXTT11=
EXTT12=
EXTT13=
PLAYORDER=
